<svg id="svg" version="1.1" xmlns="http://www.w3.org/2000/svg" xmlns:xlink="http://www.w3.org/1999/xlink" width="400" height="383.22411533420706" viewBox="0, 0, 400,383.22411533420706"><g id="svgg"><path id="path0" d="M324.257 52.565 C 315.866 52.899,305.923 54.263,295.302 56.536 C 287.000 58.313,272.857 62.465,265.772 65.204 C 264.612 65.653,262.800 66.335,261.745 66.719 C 259.991 67.360,255.773 69.101,252.924 70.360 C 252.291 70.639,250.911 71.251,249.856 71.718 C 239.834 76.158,226.237 83.739,214.190 91.601 C 212.598 92.639,204.563 98.441,203.763 99.129 C 203.513 99.344,202.654 100.038,201.854 100.671 C 186.487 112.834,173.609 128.578,164.700 146.092 C 162.642 150.139,162.523 150.509,163.161 150.886 C 167.806 153.628,178.323 163.275,183.763 169.783 C 187.782 174.591,195.206 185.751,195.206 186.985 C 195.206 187.066,195.788 188.328,196.500 189.791 C 200.118 197.225,202.861 208.215,202.873 215.321 C 202.877 217.836,202.782 217.982,208.515 206.711 C 213.403 197.102,216.118 191.938,216.680 191.179 C 216.837 190.968,217.789 189.243,218.797 187.344 C 219.804 185.446,220.863 183.620,221.149 183.287 C 221.434 182.954,221.668 182.551,221.668 182.392 C 221.668 182.233,223.588 178.881,225.934 174.944 C 239.902 151.503,252.554 133.636,267.581 116.132 C 275.795 106.564,289.804 92.625,297.731 86.134 C 302.180 82.491,302.045 83.422,297.343 88.802 C 295.693 90.689,293.484 93.269,292.434 94.535 C 291.384 95.801,290.425 96.922,290.302 97.028 C 289.242 97.940,273.456 118.323,270.254 122.915 C 269.665 123.758,268.079 126.002,266.730 127.900 C 257.090 141.457,244.373 161.792,237.112 175.264 C 236.486 176.424,235.231 178.754,234.322 180.441 C 231.176 186.281,220.901 207.116,220.901 207.655 C 220.901 207.727,220.203 209.313,219.349 211.180 C 218.495 213.046,217.648 214.919,217.466 215.340 C 217.284 215.762,216.799 216.884,216.388 217.833 C 215.977 218.782,215.173 220.681,214.601 222.052 C 214.029 223.423,213.405 224.890,213.214 225.312 C 212.555 226.766,210.089 232.991,208.807 236.433 C 208.100 238.332,207.156 240.834,206.708 241.994 C 206.261 243.154,205.662 244.794,205.377 245.638 C 205.093 246.481,203.905 249.931,202.738 253.304 C 200.233 260.544,199.693 259.802,207.915 260.429 C 223.463 261.615,237.714 259.274,253.883 252.875 C 270.713 246.215,287.898 232.142,297.845 216.874 C 304.463 206.715,310.599 192.504,313.492 180.633 C 313.621 180.105,314.136 178.121,314.638 176.222 C 315.540 172.807,316.979 165.848,318.087 159.540 C 319.194 153.240,319.920 148.417,321.753 135.187 C 323.722 120.986,324.082 118.442,324.605 115.053 C 326.363 103.663,327.889 95.972,330.045 87.632 C 332.989 76.241,336.221 67.472,340.837 58.351 C 342.369 55.324,343.526 52.693,343.409 52.503 C 343.171 52.119,334.783 52.146,324.257 52.565 M203.710 301.559 C 202.603 302.738,202.626 304.521,203.764 305.590 C 206.486 308.148,210.328 304.253,207.688 301.612 C 206.480 300.405,204.816 300.382,203.710 301.559 M337.387 301.151 C 335.086 302.898,336.271 306.424,339.160 306.424 C 340.785 306.424,341.707 305.383,341.707 303.547 C 341.707 301.095,339.253 299.734,337.387 301.151 M177.437 302.077 C 177.296 302.218,177.181 309.207,177.181 317.609 L 177.181 332.886 179.482 332.886 L 181.783 332.886 181.783 325.306 C 181.783 315.361,182.648 313.637,187.663 313.582 C 192.655 313.527,193.421 314.985,193.672 325.024 L 193.864 332.694 196.069 332.809 L 198.274 332.924 198.270 325.522 C 198.263 315.110,197.429 312.554,193.400 310.604 C 189.998 308.956,184.693 309.481,182.899 311.643 C 181.965 312.769,181.783 312.013,181.783 306.999 L 181.783 301.822 179.738 301.822 C 178.613 301.822,177.578 301.937,177.437 302.077 M327.005 302.077 C 326.865 302.218,326.750 304.634,326.750 307.446 C 326.750 310.259,326.660 312.560,326.550 312.560 C 326.440 312.560,325.706 312.135,324.920 311.616 C 316.854 306.292,308.152 311.260,308.150 321.189 C 308.149 331.552,318.408 337.230,325.409 330.742 C 326.711 329.535,326.750 329.552,326.750 331.352 L 326.750 332.886 329.051 332.886 L 331.352 332.886 331.352 317.354 L 331.352 301.822 329.306 301.822 C 328.182 301.822,327.146 301.937,327.005 302.077 M89.631 303.978 C 89.480 304.128,89.358 310.702,89.358 318.587 L 89.358 332.924 91.563 332.809 L 93.768 332.694 93.873 326.462 C 93.931 323.035,94.104 320.231,94.257 320.232 C 94.410 320.233,96.347 322.344,98.562 324.922 C 100.777 327.501,103.279 330.356,104.123 331.268 L 105.657 332.925 108.449 332.810 L 111.241 332.694 108.449 329.602 C 101.670 322.094,98.945 318.879,98.945 318.385 C 98.945 317.859,99.883 316.720,107.095 308.482 C 111.547 303.396,111.468 303.739,108.193 303.739 L 105.553 303.739 100.549 309.631 C 97.797 312.871,95.231 315.836,94.848 316.220 C 94.175 316.894,94.145 316.700,93.960 310.424 L 93.768 303.931 91.836 303.818 C 90.773 303.756,89.781 303.828,89.631 303.978 M123.541 309.983 C 122.830 310.210,121.668 310.943,120.959 311.613 C 119.489 312.999,119.271 312.940,119.271 311.154 L 119.271 309.875 117.162 309.875 L 115.053 309.875 115.053 321.381 L 115.053 332.886 117.139 332.886 L 119.226 332.886 119.344 325.503 C 119.495 316.131,120.147 314.674,124.405 314.194 L 126.174 313.994 126.174 311.743 C 126.174 309.256,126.059 309.178,123.541 309.983 M159.707 310.279 C 156.137 311.653,154.356 314.765,155.356 317.883 C 156.208 320.539,157.187 321.181,163.377 323.141 C 167.747 324.524,168.456 325.007,168.456 326.596 C 168.456 330.061,161.465 330.486,159.728 327.127 C 159.178 326.064,158.985 325.983,156.987 325.983 L 154.837 325.983 155.056 327.331 C 156.122 333.900,168.785 335.422,172.175 329.389 C 174.532 325.196,172.233 321.924,165.467 319.841 C 160.955 318.452,160.089 317.943,159.816 316.518 C 159.076 312.644,166.550 312.095,168.012 315.916 C 168.428 317.004,172.579 317.255,172.579 316.191 C 172.579 311.298,165.504 308.049,159.707 310.279 M221.419 310.184 C 220.543 310.542,219.494 311.136,219.088 311.505 C 218.090 312.410,217.905 312.356,217.763 311.122 C 217.647 310.114,217.548 310.067,215.532 310.067 L 213.423 310.067 213.321 321.477 L 213.220 332.886 215.526 332.886 L 217.833 332.886 217.833 325.392 C 217.833 315.925,218.263 314.721,222.002 313.721 C 224.536 313.043,227.137 313.774,228.487 315.542 L 229.530 316.908 229.648 324.897 L 229.765 332.886 232.017 332.886 L 234.269 332.886 234.392 324.928 C 234.548 314.920,235.207 313.647,240.274 313.574 C 245.199 313.503,245.986 315.055,246.139 325.138 L 246.257 332.923 248.440 332.809 L 250.623 332.694 250.731 326.366 C 250.857 319.029,250.404 315.345,249.151 313.501 C 245.935 308.768,238.903 308.149,234.698 312.230 L 233.127 313.754 231.636 312.263 C 229.084 309.711,224.742 308.828,221.419 310.184 M261.202 310.329 C 252.409 313.706,251.921 327.724,260.443 332.130 C 263.731 333.830,268.358 333.411,271.328 331.144 C 273.190 329.723,273.442 329.778,273.442 331.608 L 273.442 332.886 275.551 332.886 L 277.661 332.886 277.661 321.381 L 277.661 309.875 275.551 309.875 L 273.442 309.875 273.442 311.154 C 273.442 312.953,273.159 313.055,271.575 311.827 C 268.479 309.427,264.899 308.910,261.202 310.329 M291.473 310.136 C 290.739 310.456,289.676 311.046,289.113 311.447 C 287.756 312.413,287.632 312.378,287.632 311.026 C 287.632 309.887,287.611 309.875,285.523 309.875 L 283.413 309.875 283.413 321.381 L 283.413 332.886 285.523 332.886 L 287.632 332.886 287.632 325.680 C 287.632 315.802,288.738 313.583,293.659 313.583 C 296.288 313.583,297.205 314.008,298.642 315.890 L 299.712 317.293 299.842 325.089 L 299.972 332.886 302.048 332.886 L 304.123 332.886 304.123 324.840 C 304.123 315.921,303.865 314.592,301.689 312.271 C 299.425 309.858,294.484 308.825,291.473 310.136 M129.695 318.389 C 129.810 326.428,129.870 327.040,130.691 328.577 C 133.116 333.117,139.823 334.573,144.298 331.532 C 146.057 330.337,146.117 330.344,146.117 331.735 C 146.117 332.874,146.138 332.886,148.226 332.886 L 150.336 332.886 150.336 321.361 L 150.336 309.835 148.322 309.951 L 146.309 310.067 146.098 317.546 C 145.874 325.477,145.786 325.965,144.272 327.604 C 141.781 330.301,136.698 329.770,134.897 326.624 C 134.579 326.069,134.356 323.169,134.228 317.929 L 134.036 310.067 131.805 309.951 L 129.573 309.835 129.695 318.389 M203.433 310.360 C 203.331 310.626,203.293 315.760,203.350 321.769 L 203.452 332.694 205.657 332.809 L 207.862 332.924 207.862 321.400 L 207.862 309.875 205.741 309.875 C 204.386 309.875,203.552 310.050,203.433 310.360 M336.721 321.381 L 336.721 332.886 339.022 332.886 L 341.323 332.886 341.323 321.381 L 341.323 309.875 339.022 309.875 L 336.721 309.875 336.721 321.381 M270.040 314.678 C 273.188 316.712,274.243 322.169,272.172 325.703 C 268.226 332.436,259.060 329.439,259.060 321.415 C 259.060 314.883,264.854 311.328,270.040 314.678 M321.465 313.727 C 328.797 315.764,328.339 328.133,320.890 329.250 C 312.096 330.569,308.973 315.715,317.637 313.775 C 319.856 313.278,319.848 313.278,321.465 313.727 " stroke="none" fill="#428a4b" fill-rule="evenodd"></path><path id="path1" d="M69.415 128.378 C 69.415 128.603,70.451 130.862,71.716 133.399 C 72.982 135.935,74.017 138.126,74.017 138.267 C 74.017 138.407,74.260 139.066,74.556 139.731 C 76.695 144.533,80.130 157.596,81.277 165.292 C 81.481 166.663,82.008 170.115,82.446 172.963 C 82.885 175.810,83.576 180.556,83.981 183.509 C 87.617 210.005,89.998 219.323,96.427 232.215 C 105.636 250.679,123.925 263.914,144.966 267.341 C 151.129 268.344,164.081 268.262,165.130 267.212 C 165.480 266.863,161.057 253.859,159.338 250.182 C 159.027 249.517,158.773 248.853,158.773 248.706 C 158.773 248.558,158.525 247.894,158.221 247.230 C 157.918 246.565,157.214 244.899,156.656 243.528 C 156.098 242.157,155.247 240.173,154.765 239.118 C 154.283 238.063,152.964 235.129,151.834 232.598 C 148.700 225.579,142.556 213.413,138.955 207.095 C 138.414 206.146,137.450 204.420,136.813 203.260 C 136.176 202.100,135.450 200.892,135.200 200.575 C 134.949 200.259,133.649 198.188,132.309 195.973 C 128.641 189.909,119.664 176.561,116.802 172.915 C 116.367 172.361,115.666 171.420,115.244 170.822 C 113.376 168.176,105.425 158.234,102.336 154.681 C 95.965 147.353,98.838 149.208,108.672 158.773 C 117.224 167.091,124.297 175.296,132.972 186.964 C 136.298 191.436,148.418 210.115,148.418 210.768 C 148.418 210.849,149.022 211.859,149.760 213.013 C 150.499 214.168,151.103 215.193,151.103 215.292 C 151.103 215.390,152.027 217.081,153.157 219.049 C 157.240 226.161,163.671 238.719,169.129 250.240 C 170.328 252.771,171.960 256.176,172.757 257.808 L 174.204 260.773 175.405 259.944 C 192.814 247.920,200.423 221.455,192.860 199.233 C 181.352 165.416,139.748 136.573,91.889 129.233 C 85.996 128.329,69.415 127.699,69.415 128.378 " stroke="none" fill="#9cc454" fill-rule="evenodd"></path><path id="path2" d="M336.050 52.056 C 337.052 52.135,338.691 52.135,339.693 52.056 C 340.695 51.977,339.875 51.912,337.872 51.912 C 335.868 51.912,335.048 51.977,336.050 52.056 M324.942 52.441 C 326.163 52.517,328.061 52.517,329.161 52.439 C 330.260 52.362,329.262 52.300,326.942 52.301 C 324.621 52.302,323.722 52.365,324.942 52.441 M317.258 52.805 C 317.627 52.902,318.231 52.902,318.600 52.805 C 318.969 52.709,318.667 52.630,317.929 52.630 C 317.191 52.630,316.889 52.709,317.258 52.805 M295.110 56.376 C 294.133 56.796,295.141 56.796,296.453 56.376 C 297.223 56.129,297.261 56.067,296.644 56.058 C 296.222 56.051,295.532 56.195,295.110 56.376 M283.988 59.060 C 283.505 59.268,283.434 59.390,283.797 59.390 C 284.113 59.390,284.717 59.242,285.139 59.060 C 285.622 58.853,285.693 58.731,285.331 58.731 C 285.014 58.731,284.410 58.879,283.988 59.060 M262.512 66.169 C 261.553 66.631,261.521 66.684,262.320 66.489 C 263.407 66.223,264.628 65.600,264.046 65.609 C 263.835 65.612,263.145 65.864,262.512 66.169 M242.761 74.784 C 242.023 75.188,241.557 75.526,241.726 75.535 C 242.132 75.557,244.295 74.432,244.295 74.199 C 244.295 73.948,244.273 73.957,242.761 74.784 M222.531 85.950 C 221.224 86.787,220.801 87.349,221.956 86.715 C 222.836 86.231,224.214 85.165,223.969 85.158 C 223.864 85.155,223.217 85.511,222.531 85.950 M295.494 88.065 L 293.193 90.206 295.590 88.210 C 297.674 86.474,298.271 85.878,297.891 85.915 C 297.838 85.920,296.759 86.888,295.494 88.065 M297.966 87.728 L 296.644 89.166 298.082 87.844 C 299.421 86.614,299.697 86.290,299.404 86.290 C 299.340 86.290,298.693 86.937,297.966 87.728 M329.291 90.173 C 328.971 91.771,329.281 92.081,329.626 90.508 C 329.772 89.845,329.811 89.223,329.713 89.125 C 329.615 89.027,329.425 89.499,329.291 90.173 M295.470 90.604 L 294.343 91.850 295.590 90.724 C 296.275 90.105,296.836 89.544,296.836 89.478 C 296.836 89.181,296.520 89.442,295.470 90.604 M290.107 92.905 L 288.591 94.535 290.221 93.019 C 291.736 91.609,292.027 91.275,291.737 91.275 C 291.674 91.275,290.940 92.009,290.107 92.905 M281.873 100.767 L 277.469 105.273 281.975 100.869 C 286.161 96.778,286.655 96.261,286.379 96.261 C 286.323 96.261,284.295 98.289,281.873 100.767 M194.996 106.328 L 193.480 107.958 195.110 106.442 C 196.626 105.032,196.916 104.698,196.626 104.698 C 196.564 104.698,195.830 105.431,194.996 106.328 M273.826 109.108 C 272.894 110.058,272.218 110.834,272.324 110.834 C 272.429 110.834,273.277 110.058,274.209 109.108 C 275.141 108.159,275.816 107.383,275.711 107.383 C 275.606 107.383,274.757 108.159,273.826 109.108 M189.453 111.409 C 188.522 112.359,187.846 113.135,187.952 113.135 C 188.057 113.135,188.905 112.359,189.837 111.409 C 190.769 110.460,191.444 109.684,191.339 109.684 C 191.234 109.684,190.385 110.460,189.453 111.409 M269.970 113.423 L 268.648 114.861 270.086 113.539 C 271.425 112.309,271.701 111.985,271.408 111.985 C 271.344 111.985,270.697 112.632,269.970 113.423 M184.064 117.258 L 182.742 118.696 184.180 117.374 C 184.971 116.648,185.618 116.000,185.618 115.936 C 185.618 115.643,185.294 115.919,184.064 117.258 M323.771 120.805 C 323.771 121.544,323.850 121.846,323.946 121.477 C 324.043 121.107,324.043 120.503,323.946 120.134 C 323.850 119.765,323.771 120.067,323.771 120.805 M179.792 122.244 C 179.116 123.030,178.609 123.873,178.812 123.873 C 178.890 123.873,179.337 123.356,179.805 122.723 C 180.730 121.473,180.721 121.162,179.792 122.244 M322.390 130.044 C 322.257 130.711,322.168 131.709,322.192 132.263 C 322.217 132.816,322.392 132.337,322.581 131.197 C 322.950 128.975,322.793 128.029,322.390 130.044 M320.703 142.665 C 320.703 143.404,320.782 143.706,320.878 143.337 C 320.974 142.967,320.974 142.363,320.878 141.994 C 320.782 141.625,320.703 141.927,320.703 142.665 M245.062 144.966 C 244.612 145.599,244.329 146.117,244.435 146.117 C 244.540 146.117,244.995 145.599,245.446 144.966 C 245.896 144.334,246.179 143.816,246.073 143.816 C 245.968 143.816,245.513 144.334,245.062 144.966 M163.183 148.418 C 162.856 149.051,162.674 149.569,162.780 149.569 C 162.885 149.569,163.239 149.051,163.567 148.418 C 163.894 147.785,164.075 147.267,163.970 147.267 C 163.864 147.267,163.510 147.785,163.183 148.418 M319.289 151.695 C 319.142 152.674,319.100 153.552,319.196 153.648 C 319.292 153.744,319.491 153.022,319.637 152.044 C 319.784 151.066,319.826 150.187,319.730 150.091 C 319.634 149.995,319.435 150.717,319.289 151.695 M171.429 157.359 C 171.429 157.425,171.989 157.986,172.675 158.605 L 173.921 159.732 172.795 158.485 C 171.745 157.323,171.429 157.062,171.429 157.359 M176.031 161.577 C 176.031 161.643,176.592 162.204,177.277 162.824 L 178.523 163.950 177.397 162.704 C 176.347 161.542,176.031 161.281,176.031 161.577 M180.249 165.924 C 180.249 166.130,180.810 166.806,181.496 167.426 L 182.742 168.552 181.592 167.212 C 180.959 166.475,180.398 165.799,180.345 165.710 C 180.292 165.621,180.249 165.717,180.249 165.924 M313.546 180.085 C 313.405 180.647,313.364 181.181,313.454 181.271 C 313.544 181.362,313.734 180.976,313.875 180.414 C 314.016 179.852,314.057 179.318,313.967 179.227 C 313.877 179.137,313.687 179.523,313.546 180.085 M193.097 183.701 C 193.424 184.334,193.778 184.851,193.884 184.851 C 193.989 184.851,193.808 184.334,193.480 183.701 C 193.153 183.068,192.799 182.550,192.694 182.550 C 192.588 182.550,192.770 183.068,193.097 183.701 M227.688 192.718 C 227.337 193.454,227.129 194.056,227.226 194.056 C 227.488 194.056,228.652 191.707,228.477 191.532 C 228.393 191.449,228.038 191.983,227.688 192.718 M226.333 195.414 C 225.690 196.825,225.813 197.125,226.507 195.843 C 226.832 195.245,227.026 194.683,226.938 194.595 C 226.850 194.508,226.578 194.876,226.333 195.414 M202.590 213.423 C 202.594 214.267,202.672 214.567,202.764 214.089 C 202.856 213.612,202.852 212.922,202.756 212.555 C 202.660 212.189,202.585 212.579,202.590 213.423 M214.827 220.726 C 214.185 222.136,214.307 222.437,215.002 221.155 C 215.327 220.556,215.520 219.995,215.433 219.907 C 215.345 219.819,215.073 220.188,214.827 220.726 M289.364 227.797 C 288.544 228.637,287.949 229.382,288.040 229.452 C 288.132 229.522,288.877 228.834,289.695 227.925 C 291.564 225.847,291.349 225.765,289.364 227.797 M282.247 234.995 L 280.537 236.817 282.447 235.091 C 283.498 234.142,284.433 233.322,284.525 233.269 C 284.616 233.217,284.526 233.174,284.324 233.174 C 284.122 233.174,283.187 233.993,282.247 234.995 M207.521 238.969 C 207.285 239.647,207.159 240.268,207.241 240.350 C 207.323 240.432,207.583 239.945,207.819 239.267 C 208.056 238.589,208.182 237.968,208.100 237.886 C 208.018 237.804,207.757 238.291,207.521 238.969 M201.768 255.076 C 201.532 255.754,201.406 256.376,201.488 256.458 C 201.570 256.540,201.830 256.052,202.067 255.374 C 202.303 254.697,202.429 254.075,202.347 253.993 C 202.265 253.911,202.005 254.398,201.768 255.076 M234.132 258.869 C 233.088 259.134,233.071 259.163,233.941 259.180 C 234.468 259.190,235.244 259.050,235.666 258.869 C 236.612 258.462,235.729 258.462,234.132 258.869 M204.219 260.420 C 205.734 260.738,210.057 260.916,209.748 260.648 C 209.660 260.572,208.035 260.417,206.136 260.304 C 203.789 260.164,203.175 260.201,204.219 260.420 M225.795 260.290 C 226.273 260.382,226.963 260.379,227.329 260.283 C 227.696 260.187,227.306 260.112,226.462 260.116 C 225.618 260.120,225.318 260.199,225.795 260.290 M220.614 260.682 C 221.405 260.765,222.699 260.765,223.490 260.682 C 224.281 260.599,223.634 260.532,222.052 260.532 C 220.470 260.532,219.823 260.599,220.614 260.682 M341.796 303.356 C 341.796 304.094,341.875 304.396,341.971 304.027 C 342.067 303.658,342.067 303.054,341.971 302.685 C 341.875 302.315,341.796 302.617,341.796 303.356 M89.149 304.220 C 89.047 304.485,89.010 311.000,89.065 318.698 L 89.166 332.694 89.358 318.217 C 89.463 310.254,89.501 303.739,89.441 303.739 C 89.382 303.739,89.250 303.956,89.149 304.220 M106.783 308.821 L 105.657 310.067 106.903 308.941 C 108.065 307.891,108.326 307.574,108.030 307.574 C 107.964 307.574,107.403 308.135,106.783 308.821 M114.843 309.976 C 114.741 310.242,114.703 315.549,114.759 321.769 L 114.861 333.078 117.162 333.078 L 119.463 333.078 119.476 325.791 L 119.490 318.504 119.372 325.695 L 119.254 332.886 117.154 332.886 L 115.053 332.886 115.053 321.400 L 115.053 309.914 117.258 309.775 L 119.463 309.637 117.246 309.564 C 115.758 309.516,114.968 309.651,114.843 309.976 M126.245 311.674 L 126.174 314.048 124.736 314.198 L 123.298 314.349 124.748 314.413 C 126.475 314.490,126.653 314.172,126.459 311.364 L 126.316 309.300 126.245 311.674 M130.010 309.709 C 131.298 309.997,134.143 310.048,133.977 309.779 C 133.879 309.621,132.817 309.512,131.617 309.536 C 130.416 309.561,129.693 309.639,130.010 309.709 M146.210 309.935 C 145.859 310.287,145.755 312.233,145.816 317.335 L 145.899 324.257 146.104 317.162 L 146.309 310.067 148.322 309.951 L 150.336 309.835 150.336 321.361 L 150.336 332.886 148.226 332.886 C 146.138 332.886,146.117 332.874,146.117 331.735 C 146.117 331.103,145.966 330.585,145.782 330.585 C 145.598 330.585,145.562 331.146,145.702 331.831 C 145.955 333.069,145.972 333.078,148.242 333.078 L 150.527 333.078 150.527 321.381 L 150.527 309.684 148.607 309.571 C 147.445 309.503,146.499 309.647,146.210 309.935 M203.521 309.761 C 203.416 309.930,204.350 310.009,205.596 309.937 L 207.862 309.807 207.862 321.381 L 207.862 332.954 205.579 332.824 C 204.323 332.753,203.435 332.833,203.606 333.004 C 203.777 333.174,204.848 333.260,205.986 333.195 L 208.054 333.078 208.054 321.381 L 208.054 309.684 205.882 309.570 C 204.688 309.507,203.625 309.593,203.521 309.761 M213.482 309.779 C 213.384 309.938,214.307 310.067,215.532 310.067 C 216.757 310.067,217.680 309.938,217.582 309.779 C 217.484 309.621,216.562 309.492,215.532 309.492 C 214.502 309.492,213.580 309.621,213.482 309.779 M273.331 309.731 C 273.181 309.881,273.058 310.600,273.058 311.329 C 273.058 312.536,272.999 312.607,272.387 312.127 C 271.780 311.651,271.766 311.665,272.239 312.268 C 272.962 313.190,273.442 312.762,273.442 311.195 L 273.442 309.875 275.551 309.875 L 277.661 309.875 277.661 321.381 L 277.661 332.886 275.551 332.886 L 273.442 332.886 273.442 331.566 C 273.442 330.180,272.922 329.492,272.450 330.254 C 272.283 330.526,272.339 330.601,272.592 330.444 C 272.861 330.278,273.054 330.705,273.131 331.631 L 273.250 333.078 275.551 333.078 L 277.852 333.078 277.852 321.381 L 277.852 309.684 275.728 309.571 C 274.559 309.509,273.481 309.581,273.331 309.731 M283.204 309.976 C 283.101 310.242,283.064 315.549,283.120 321.769 L 283.221 333.078 285.523 333.078 L 287.824 333.078 287.836 325.695 L 287.849 318.312 287.732 325.599 L 287.615 332.886 285.514 332.886 L 283.413 332.886 283.413 321.400 L 283.413 309.914 285.618 309.775 L 287.824 309.637 285.606 309.564 C 284.119 309.516,283.328 309.651,283.204 309.976 M337.967 309.767 C 338.547 309.854,339.497 309.854,340.077 309.767 C 340.657 309.679,340.182 309.607,339.022 309.607 C 337.862 309.607,337.387 309.679,337.967 309.767 M119.271 311.387 C 119.271 312.007,119.408 312.599,119.575 312.702 C 119.742 312.805,119.809 312.298,119.724 311.574 C 119.536 309.962,119.271 309.853,119.271 311.387 M287.632 311.218 C 287.632 311.745,287.780 312.176,287.962 312.176 C 288.144 312.176,288.210 311.745,288.109 311.218 C 288.008 310.690,287.860 310.259,287.779 310.259 C 287.698 310.259,287.632 310.690,287.632 311.218 M104.099 311.889 L 102.972 313.135 104.219 312.009 C 105.380 310.959,105.641 310.642,105.345 310.642 C 105.279 310.642,104.718 311.203,104.099 311.889 M310.810 312.656 L 309.684 313.902 310.930 312.776 C 311.616 312.156,312.176 311.595,312.176 311.529 C 312.176 311.233,311.860 311.494,310.810 312.656 M166.859 314.715 C 167.369 315.372,167.862 315.842,167.957 315.758 C 168.051 315.674,167.634 315.135,167.031 314.562 L 165.934 313.519 166.859 314.715 M245.990 325.407 C 245.990 329.626,246.046 331.404,246.115 329.359 C 246.184 327.313,246.184 323.862,246.116 321.689 C 246.047 319.515,245.991 321.189,245.990 325.407 M304.210 325.312 L 304.123 332.886 302.022 332.886 L 299.921 332.886 299.803 325.695 L 299.686 318.504 299.699 325.791 L 299.712 333.078 301.922 333.193 C 304.699 333.338,304.548 333.834,304.410 325.012 L 304.296 317.737 304.210 325.312 M307.700 321.189 C 307.702 322.665,307.771 323.222,307.854 322.427 C 307.937 321.631,307.936 320.423,307.851 319.742 C 307.766 319.061,307.698 319.712,307.700 321.189 M258.984 321.381 C 258.984 322.541,259.055 323.015,259.143 322.435 C 259.231 321.855,259.231 320.906,259.143 320.326 C 259.055 319.746,258.984 320.221,258.984 321.381 M101.246 321.572 C 101.962 322.311,102.634 322.915,102.739 322.915 C 102.845 322.915,102.345 322.311,101.630 321.572 C 100.914 320.834,100.243 320.230,100.137 320.230 C 100.032 320.230,100.531 320.834,101.246 321.572 M273.147 321.381 C 273.147 322.119,273.226 322.421,273.323 322.052 C 273.419 321.683,273.419 321.079,273.323 320.709 C 273.226 320.340,273.147 320.642,273.147 321.381 M95.877 322.268 C 95.877 322.334,96.438 322.895,97.124 323.514 L 98.370 324.640 97.244 323.394 C 96.194 322.232,95.877 321.971,95.877 322.268 M259.282 324.088 C 259.266 324.417,259.521 325.021,259.849 325.430 C 260.435 326.163,260.439 326.162,260.092 325.407 C 259.898 324.986,259.643 324.382,259.526 324.065 C 259.342 323.568,259.309 323.571,259.282 324.088 M103.547 324.185 C 103.547 324.251,104.108 324.812,104.794 325.432 L 106.040 326.558 104.914 325.312 C 103.864 324.150,103.547 323.889,103.547 324.185 M106.999 328.092 C 107.715 328.830,108.386 329.434,108.492 329.434 C 108.597 329.434,108.098 328.830,107.383 328.092 C 106.667 327.354,105.995 326.750,105.890 326.750 C 105.784 326.750,106.283 327.354,106.999 328.092 M257.526 330.201 C 258.350 331.045,259.111 331.735,259.216 331.735 C 259.322 331.735,258.734 331.045,257.910 330.201 C 257.086 329.358,256.326 328.667,256.220 328.667 C 256.115 328.667,256.702 329.358,257.526 330.201 M139.506 329.322 C 139.983 329.414,140.673 329.410,141.040 329.314 C 141.407 329.218,141.016 329.143,140.173 329.148 C 139.329 329.152,139.029 329.230,139.506 329.322 M265.292 329.321 C 265.767 329.413,266.544 329.413,267.018 329.321 C 267.493 329.230,267.105 329.155,266.155 329.155 C 265.206 329.155,264.818 329.230,265.292 329.321 M318.988 329.322 C 319.465 329.414,320.156 329.410,320.522 329.314 C 320.889 329.218,320.499 329.143,319.655 329.148 C 318.811 329.152,318.511 329.230,318.988 329.322 M104.669 332.215 C 105.544 333.207,105.771 333.265,108.504 333.193 L 111.409 333.117 108.538 332.983 C 106.249 332.876,105.471 332.677,104.703 332.004 L 103.739 331.160 104.669 332.215 M91.659 332.886 L 89.549 333.144 91.540 333.207 C 92.635 333.241,93.638 333.097,93.768 332.886 C 93.898 332.675,93.952 332.531,93.886 332.565 C 93.821 332.599,92.819 332.744,91.659 332.886 M194.020 333.005 C 194.192 333.176,195.176 333.259,196.207 333.191 L 198.082 333.065 195.895 332.880 C 194.692 332.778,193.849 332.834,194.020 333.005 M248.514 332.886 L 246.405 333.144 248.395 333.207 C 249.490 333.241,250.493 333.097,250.623 332.886 C 250.754 332.675,250.807 332.531,250.742 332.565 C 250.677 332.599,249.674 332.744,248.514 332.886 M178.236 333.163 C 178.921 333.248,180.043 333.248,180.729 333.163 C 181.414 333.078,180.853 333.009,179.482 333.009 C 178.111 333.009,177.550 333.078,178.236 333.163 M214.477 333.161 C 215.058 333.248,216.007 333.248,216.587 333.161 C 217.167 333.073,216.692 333.001,215.532 333.001 C 214.372 333.001,213.897 333.073,214.477 333.161 M230.783 333.164 C 231.473 333.249,232.508 333.247,233.085 333.160 C 233.661 333.072,233.097 333.003,231.831 333.005 C 230.566 333.007,230.094 333.078,230.783 333.164 M328.195 333.164 C 328.884 333.249,329.920 333.247,330.496 333.160 C 331.072 333.072,330.508 333.003,329.243 333.005 C 327.977 333.007,327.505 333.078,328.195 333.164 M337.776 333.163 C 338.461 333.248,339.583 333.248,340.268 333.163 C 340.954 333.078,340.393 333.009,339.022 333.009 C 337.651 333.009,337.090 333.078,337.776 333.163 " stroke="none" fill="#8bbc9c" fill-rule="evenodd"></path><path id="path3" d="M326.270 52.058 C 327.800 52.131,330.302 52.131,331.831 52.058 C 333.360 51.986,332.109 51.926,329.051 51.926 C 325.992 51.926,324.741 51.986,326.270 52.058 M341.323 51.924 C 341.323 52.006,341.927 52.144,342.665 52.230 C 343.404 52.316,344.008 52.249,344.008 52.080 C 344.008 51.912,343.404 51.774,342.665 51.774 C 341.927 51.774,341.323 51.841,341.323 51.924 M319.758 52.435 C 320.447 52.521,321.482 52.519,322.059 52.431 C 322.635 52.344,322.071 52.274,320.805 52.276 C 319.540 52.278,319.068 52.350,319.758 52.435 M307.766 53.691 C 306.171 54.097,307.741 54.115,309.684 53.713 C 310.973 53.446,311.034 53.396,310.067 53.397 C 309.434 53.398,308.399 53.530,307.766 53.691 M299.137 55.225 C 297.848 55.638,299.241 55.638,300.863 55.225 C 301.896 54.962,301.916 54.932,301.055 54.925 C 300.527 54.921,299.664 55.056,299.137 55.225 M293.768 56.376 C 292.997 56.623,292.960 56.685,293.576 56.694 C 293.998 56.700,294.688 56.557,295.110 56.376 C 296.088 55.956,295.079 55.956,293.768 56.376 M287.440 57.910 C 286.957 58.118,286.886 58.239,287.248 58.239 C 287.565 58.239,288.169 58.091,288.591 57.910 C 289.074 57.702,289.145 57.580,288.782 57.580 C 288.466 57.580,287.862 57.729,287.440 57.910 M281.687 59.444 C 281.204 59.652,281.133 59.774,281.496 59.774 C 281.812 59.774,282.416 59.625,282.838 59.444 C 283.321 59.236,283.392 59.114,283.030 59.114 C 282.713 59.114,282.109 59.263,281.687 59.444 M277.331 60.651 C 276.622 60.855,276.114 61.093,276.202 61.181 C 276.396 61.375,279.195 60.630,279.195 60.385 C 279.195 60.159,278.890 60.202,277.331 60.651 M245.062 73.442 C 244.535 73.743,244.276 73.990,244.487 73.990 C 244.698 73.990,245.302 73.743,245.829 73.442 C 246.357 73.141,246.616 72.894,246.405 72.894 C 246.194 72.894,245.590 73.141,245.062 73.442 M236.529 77.688 C 235.096 78.466,235.183 78.790,236.625 78.044 C 237.258 77.717,237.776 77.367,237.776 77.267 C 237.776 77.020,237.734 77.034,236.529 77.688 M299.528 84.938 C 299.261 85.259,299.183 85.523,299.354 85.523 C 299.524 85.523,299.157 86.083,298.538 86.769 L 297.411 88.015 298.644 86.902 C 299.322 86.290,299.796 85.657,299.696 85.497 C 299.597 85.336,299.733 85.127,299.998 85.033 C 300.263 84.938,300.375 84.746,300.246 84.607 C 300.118 84.468,299.795 84.617,299.528 84.938 M330.420 86.509 C 330.279 87.071,330.238 87.605,330.328 87.695 C 330.419 87.785,330.608 87.399,330.749 86.837 C 330.890 86.275,330.932 85.742,330.841 85.651 C 330.751 85.561,330.562 85.947,330.420 86.509 M290.490 92.905 L 288.974 94.535 290.604 93.019 C 292.120 91.609,292.410 91.275,292.120 91.275 C 292.057 91.275,291.324 92.009,290.490 92.905 M291.436 95.014 C 289.174 97.548,288.661 98.178,288.861 98.178 C 288.977 98.178,289.884 97.229,290.875 96.069 C 292.710 93.921,293.150 93.095,291.436 95.014 M282.067 100.959 L 275.551 107.574 282.167 101.059 C 288.313 95.006,288.956 94.343,288.682 94.343 C 288.627 94.343,285.650 97.320,282.067 100.959 M204.528 98.015 L 203.452 99.001 204.698 98.134 C 205.384 97.657,205.944 97.213,205.944 97.147 C 205.944 96.845,205.520 97.104,204.528 98.015 M193.275 107.670 L 191.179 109.875 193.384 107.779 C 195.433 105.832,195.765 105.465,195.481 105.465 C 195.421 105.465,194.428 106.457,193.275 107.670 M273.429 109.971 L 271.333 112.176 273.538 110.080 C 275.587 108.133,275.919 107.766,275.634 107.766 C 275.574 107.766,274.582 108.758,273.429 109.971 M280.292 108.821 C 279.188 110.153,278.721 110.834,278.910 110.834 C 279.017 110.834,279.564 110.230,280.127 109.492 C 281.172 108.122,281.299 107.605,280.292 108.821 M189.244 111.314 L 187.728 112.943 189.358 111.427 C 190.873 110.018,191.164 109.684,190.874 109.684 C 190.811 109.684,190.077 110.417,189.244 111.314 M269.775 113.998 L 268.648 115.244 269.895 114.118 C 270.580 113.499,271.141 112.938,271.141 112.872 C 271.141 112.575,270.824 112.836,269.775 113.998 M185.796 115.149 L 183.893 117.162 185.906 115.259 C 187.013 114.212,187.919 113.306,187.919 113.245 C 187.919 112.959,187.564 113.278,185.796 115.149 M267.090 117.066 L 265.964 118.313 267.210 117.186 C 267.895 116.567,268.456 116.006,268.456 115.940 C 268.456 115.643,268.140 115.904,267.090 117.066 M273.442 117.737 C 272.991 118.370,272.709 118.888,272.815 118.888 C 272.920 118.888,273.375 118.370,273.826 117.737 C 274.276 117.105,274.558 116.587,274.453 116.587 C 274.348 116.587,273.893 117.105,273.442 117.737 M269.223 123.490 C 268.773 124.123,268.490 124.640,268.596 124.640 C 268.701 124.640,269.156 124.123,269.607 123.490 C 270.057 122.857,270.340 122.339,270.234 122.339 C 270.129 122.339,269.674 122.857,269.223 123.490 M177.526 124.736 C 175.592 127.250,175.541 127.325,175.746 127.325 C 175.852 127.325,176.655 126.376,177.531 125.216 C 178.407 124.056,179.046 123.106,178.952 123.106 C 178.857 123.106,178.215 123.840,177.526 124.736 M323.387 125.407 C 323.387 126.146,323.466 126.448,323.563 126.079 C 323.659 125.709,323.659 125.105,323.563 124.736 C 323.466 124.367,323.387 124.669,323.387 125.407 M68.875 128.036 C 68.764 128.215,68.917 128.690,69.217 129.090 C 69.736 129.786,69.751 129.780,69.546 128.966 C 69.333 128.119,69.365 128.113,74.838 127.996 L 80.345 127.877 74.711 127.793 C 71.612 127.747,68.986 127.856,68.875 128.036 M82.359 128.369 C 83.044 128.455,84.166 128.455,84.851 128.369 C 85.537 128.284,84.976 128.215,83.605 128.215 C 82.234 128.215,81.673 128.284,82.359 128.369 M90.892 129.051 C 92.474 129.341,94.113 129.571,94.535 129.563 C 95.819 129.537,92.768 128.927,90.316 128.719 C 88.068 128.528,88.081 128.536,90.892 129.051 M100.063 130.625 C 101.416 130.920,102.592 131.092,102.678 131.007 C 102.875 130.810,99.126 129.997,98.255 130.048 C 97.897 130.069,98.710 130.329,100.063 130.625 M70.182 131.064 C 70.182 131.247,70.432 131.732,70.738 132.141 C 71.275 132.860,71.287 132.855,71.076 132.017 C 70.857 131.151,70.182 130.431,70.182 131.064 M104.890 131.729 C 105.733 132.016,106.769 132.254,107.191 132.257 L 107.958 132.262 107.191 131.957 C 106.769 131.790,105.733 131.552,104.890 131.429 L 103.356 131.206 104.890 131.729 M110.067 133.028 C 110.384 133.218,111.246 133.480,111.985 133.611 C 112.890 133.771,113.077 133.742,112.560 133.520 C 111.374 133.012,109.386 132.620,110.067 133.028 M71.716 134.132 C 71.716 134.315,71.966 134.800,72.272 135.210 C 72.809 135.928,72.821 135.923,72.610 135.085 C 72.391 134.219,71.716 133.499,71.716 134.132 M115.820 134.803 C 117.571 135.478,118.260 135.468,116.779 134.790 C 116.146 134.500,115.369 134.268,115.053 134.275 C 114.736 134.281,115.081 134.519,115.820 134.803 M321.853 136.529 C 321.853 137.267,321.932 137.570,322.029 137.200 C 322.125 136.831,322.125 136.227,322.029 135.858 C 321.932 135.489,321.853 135.791,321.853 136.529 M119.655 136.111 C 119.971 136.290,120.662 136.551,121.189 136.691 L 122.148 136.945 121.189 136.367 C 120.662 136.049,119.971 135.789,119.655 135.787 C 119.143 135.786,119.143 135.822,119.655 136.111 M72.894 136.337 C 72.894 136.548,73.141 137.152,73.442 137.680 C 73.743 138.207,73.990 138.466,73.990 138.255 C 73.990 138.044,73.743 137.440,73.442 136.913 C 73.141 136.385,72.894 136.127,72.894 136.337 M122.723 137.232 C 123.039 137.427,123.730 137.702,124.257 137.843 C 124.923 138.022,125.040 137.991,124.640 137.744 C 124.324 137.549,123.634 137.274,123.106 137.133 C 122.440 136.954,122.323 136.985,122.723 137.232 M126.902 138.865 C 127.829 139.277,128.656 139.545,128.739 139.462 C 128.905 139.296,125.950 138.046,125.496 138.090 C 125.342 138.105,125.974 138.454,126.902 138.865 M74.595 140.796 C 74.993 142.110,75.490 142.518,75.266 141.347 C 75.162 140.800,74.906 140.248,74.697 140.119 C 74.462 139.973,74.423 140.229,74.595 140.796 M134.995 142.474 C 136.366 143.191,137.661 143.779,137.872 143.779 C 138.082 143.779,137.133 143.191,135.762 142.474 C 134.391 141.756,133.097 141.169,132.886 141.169 C 132.675 141.169,133.624 141.756,134.995 142.474 M138.447 143.998 C 138.447 144.103,139.655 144.798,141.131 145.542 C 142.608 146.285,143.816 146.807,143.816 146.702 C 143.816 146.596,142.608 145.902,141.131 145.158 C 139.655 144.415,138.447 143.893,138.447 143.998 M320.439 145.559 C 320.293 146.537,320.251 147.416,320.347 147.512 C 320.443 147.608,320.641 146.886,320.788 145.908 C 320.935 144.930,320.976 144.051,320.880 143.955 C 320.784 143.859,320.586 144.581,320.439 145.559 M144.199 147.056 C 144.199 147.162,144.717 147.516,145.350 147.843 C 145.983 148.170,146.500 148.351,146.500 148.246 C 146.500 148.141,145.983 147.786,145.350 147.459 C 144.717 147.132,144.199 146.951,144.199 147.056 M77.534 149.377 C 77.528 149.799,77.671 150.489,77.852 150.911 C 78.272 151.888,78.272 150.880,77.852 149.569 C 77.606 148.798,77.543 148.760,77.534 149.377 M148.802 149.741 C 148.802 149.846,149.319 150.200,149.952 150.527 C 150.585 150.855,151.103 151.036,151.103 150.931 C 151.103 150.825,150.585 150.471,149.952 150.144 C 149.319 149.817,148.802 149.635,148.802 149.741 M162.327 150.096 C 162.376 150.491,163.020 151.247,163.758 151.775 L 165.101 152.736 163.895 151.631 C 163.232 151.024,162.587 150.268,162.463 149.952 C 162.308 149.557,162.266 149.602,162.327 150.096 M98.945 150.319 C 98.945 150.740,105.014 158.006,105.365 158.006 C 105.536 158.006,102.960 154.814,101.356 153.039 C 100.889 152.521,100.581 152.024,100.673 151.932 C 101.218 151.387,115.645 165.992,122.299 173.826 C 124.046 175.882,125.560 177.565,125.663 177.565 C 125.900 177.565,123.236 174.385,118.271 168.744 C 112.025 161.648,98.945 149.177,98.945 150.319 M152.228 151.797 C 152.741 152.213,153.690 152.846,154.337 153.203 L 155.513 153.851 154.580 153.093 C 154.066 152.676,153.117 152.043,152.470 151.687 L 151.294 151.039 152.228 151.797 M78.877 154.746 C 79.249 157.073,79.802 158.554,79.521 156.472 C 79.393 155.523,79.141 154.401,78.960 153.979 C 78.749 153.484,78.719 153.757,78.877 154.746 M156.472 154.513 C 158.870 156.416,165.292 161.051,165.292 160.878 C 165.292 160.653,156.938 154.435,156.088 154.028 C 155.772 153.876,155.944 154.094,156.472 154.513 M318.926 155.360 C 318.786 156.238,318.746 157.033,318.837 157.124 C 318.929 157.216,319.124 156.577,319.271 155.705 C 319.419 154.833,319.459 154.039,319.360 153.940 C 319.262 153.842,319.067 154.481,318.926 155.360 M171.045 157.359 C 171.045 157.425,171.606 157.986,172.291 158.605 L 173.538 159.732 172.411 158.485 C 171.362 157.323,171.045 157.062,171.045 157.359 M107.147 160.421 C 107.960 161.413,108.705 162.224,108.803 162.224 C 109.065 162.224,106.636 159.214,106.114 158.892 C 105.870 158.741,106.334 159.428,107.147 160.421 M176.798 162.800 C 178.581 164.593,180.127 166.059,180.232 166.059 C 180.338 166.059,178.965 164.593,177.181 162.800 C 175.398 161.007,173.852 159.540,173.747 159.540 C 173.641 159.540,175.014 161.007,176.798 162.800 M80.237 160.882 C 80.241 161.304,80.376 162.167,80.537 162.800 C 80.800 163.833,80.830 163.853,80.837 162.991 C 80.841 162.464,80.706 161.601,80.537 161.074 C 80.296 160.323,80.231 160.281,80.237 160.882 M165.704 161.324 C 165.719 161.503,166.323 162.141,167.046 162.742 C 167.769 163.342,168.348 163.688,168.333 163.509 C 168.318 163.330,167.714 162.692,166.991 162.091 C 166.268 161.490,165.688 161.145,165.704 161.324 M172.427 167.595 C 174.557 169.809,177.384 172.915,178.707 174.497 C 181.574 177.923,182.198 178.564,181.078 176.929 C 179.829 175.107,174.159 168.880,171.183 166.061 C 169.669 164.628,170.198 165.280,172.427 167.595 M110.456 164.366 C 110.459 164.559,111.080 165.407,111.835 166.251 L 113.208 167.785 111.947 166.059 C 111.254 165.110,110.633 164.262,110.568 164.174 C 110.504 164.086,110.453 164.172,110.456 164.366 M181.400 167.785 C 182.115 168.523,182.787 169.128,182.893 169.128 C 182.998 169.128,182.499 168.523,181.783 167.785 C 181.068 167.047,180.396 166.443,180.291 166.443 C 180.185 166.443,180.684 167.047,181.400 167.785 M81.777 170.278 C 81.779 171.970,82.350 174.485,82.387 172.963 C 82.400 172.435,82.267 171.314,82.093 170.470 L 81.776 168.936 81.777 170.278 M116.246 172.058 C 117.762 174.397,122.796 181.400,122.961 181.400 C 123.208 181.400,118.272 174.292,116.821 172.560 C 116.212 171.832,115.953 171.607,116.246 172.058 M314.697 176.633 C 314.556 177.195,314.514 177.729,314.605 177.820 C 314.695 177.910,314.884 177.524,315.025 176.962 C 315.166 176.400,315.208 175.866,315.117 175.776 C 315.027 175.685,314.838 176.071,314.697 176.633 M83.096 179.291 C 83.216 180.556,83.456 182.282,83.630 183.126 C 83.862 184.258,83.890 183.992,83.735 182.110 C 83.619 180.707,83.378 178.981,83.200 178.274 C 82.969 177.356,82.939 177.646,83.096 179.291 M184.148 181.708 C 184.823 182.827,185.541 183.845,185.744 183.970 C 186.241 184.277,184.894 182.028,183.799 180.723 C 183.224 180.037,183.345 180.379,184.148 181.708 M129.603 183.030 C 131.081 185.080,132.843 187.148,132.463 186.385 C 132.092 185.640,128.795 181.400,128.587 181.400 C 128.499 181.400,128.957 182.133,129.603 183.030 M124.257 183.509 C 124.910 184.458,125.531 185.235,125.636 185.235 C 125.742 185.235,125.294 184.458,124.640 183.509 C 123.987 182.560,123.367 181.783,123.261 181.783 C 123.156 181.783,123.604 182.560,124.257 183.509 M126.375 186.603 C 126.732 187.249,127.365 188.198,127.782 188.712 L 128.540 189.645 127.891 188.469 C 127.535 187.823,126.902 186.873,126.485 186.360 L 125.727 185.427 126.375 186.603 M187.728 187.536 C 188.055 188.169,188.409 188.686,188.514 188.686 C 188.620 188.686,188.438 188.169,188.111 187.536 C 187.784 186.903,187.430 186.385,187.325 186.385 C 187.219 186.385,187.400 186.903,187.728 187.536 M134.056 188.974 C 134.823 190.081,135.527 190.988,135.620 190.988 C 135.933 190.988,135.058 189.655,133.855 188.303 C 132.765 187.077,132.782 187.135,134.056 188.974 M84.651 190.412 C 84.776 191.678,85.012 193.145,85.175 193.672 C 85.339 194.204,85.370 193.607,85.244 192.330 C 85.118 191.064,84.883 189.597,84.720 189.070 C 84.555 188.538,84.525 189.135,84.651 190.412 M188.686 189.217 C 188.686 189.628,189.828 191.755,190.048 191.755 C 190.154 191.755,189.955 191.194,189.606 190.508 C 188.894 189.108,188.686 188.816,188.686 189.217 M136.031 191.864 C 137.910 194.882,141.885 200.398,140.927 198.658 C 140.185 197.310,136.109 191.371,135.925 191.371 C 135.815 191.371,135.862 191.593,136.031 191.864 M190.430 193.001 C 190.573 193.476,190.848 194.032,191.041 194.239 C 191.234 194.445,191.198 194.056,190.960 193.376 C 190.475 191.983,190.026 191.666,190.430 193.001 M197.716 193.768 C 197.860 194.243,198.135 194.800,198.328 195.006 C 198.521 195.212,198.484 194.823,198.247 194.143 C 197.761 192.750,197.313 192.433,197.716 193.768 M132.908 196.932 C 133.908 198.619,134.975 200.259,135.279 200.575 C 135.584 200.892,135.014 199.770,134.014 198.082 C 133.014 196.395,131.947 194.756,131.643 194.439 C 131.339 194.123,131.908 195.244,132.908 196.932 M191.591 195.590 C 191.732 196.117,192.007 196.807,192.203 197.124 C 192.450 197.523,192.480 197.407,192.302 196.740 C 192.161 196.213,191.885 195.523,191.690 195.206 C 191.443 194.806,191.413 194.923,191.591 195.590 M224.910 197.926 C 224.572 198.579,224.364 199.181,224.448 199.264 C 224.531 199.347,224.886 198.813,225.237 198.078 C 226.025 196.424,225.752 196.297,224.910 197.926 M86.160 199.808 C 86.285 200.968,86.535 202.263,86.715 202.685 C 87.086 203.548,86.800 201.263,86.260 199.041 C 86.014 198.026,85.989 198.213,86.160 199.808 M193.143 200.000 C 193.280 200.633,193.544 201.409,193.729 201.726 C 193.945 202.094,193.977 201.887,193.817 201.151 C 193.681 200.518,193.417 199.741,193.232 199.425 C 193.016 199.057,192.984 199.264,193.143 200.000 M141.735 200.479 C 142.116 201.059,143.104 202.613,143.932 203.931 C 144.759 205.249,145.517 206.328,145.616 206.328 C 145.715 206.328,145.401 205.681,144.919 204.890 C 142.766 201.357,141.474 199.425,141.267 199.425 C 141.144 199.425,141.355 199.899,141.735 200.479 M136.337 202.493 C 136.665 203.126,137.019 203.643,137.124 203.643 C 137.230 203.643,137.048 203.126,136.721 202.493 C 136.394 201.860,136.040 201.342,135.934 201.342 C 135.829 201.342,136.010 201.860,136.337 202.493 M137.305 204.314 C 137.309 204.473,137.665 205.034,138.095 205.561 L 138.876 206.520 138.268 205.273 C 137.690 204.089,137.286 203.687,137.305 204.314 M194.707 205.944 C 195.058 208.481,195.635 210.036,195.363 207.715 C 195.243 206.686,194.992 205.478,194.806 205.031 C 194.580 204.488,194.547 204.791,194.707 205.944 M87.324 206.328 C 87.676 208.864,88.252 210.420,87.981 208.099 C 87.860 207.069,87.609 205.861,87.423 205.414 C 87.197 204.871,87.164 205.174,87.324 206.328 M139.406 207.862 C 139.733 208.495,140.087 209.012,140.192 209.012 C 140.298 209.012,140.116 208.495,139.789 207.862 C 139.462 207.229,139.108 206.711,139.002 206.711 C 138.897 206.711,139.078 207.229,139.406 207.862 M146.281 207.766 C 147.065 209.224,148.412 211.177,148.415 210.860 C 148.419 210.538,146.059 206.711,145.858 206.711 C 145.779 206.711,145.969 207.186,146.281 207.766 M140.366 209.498 C 140.364 209.878,142.687 213.998,142.904 213.998 C 142.994 213.998,142.790 213.460,142.450 212.801 C 141.502 210.969,140.367 209.170,140.366 209.498 M202.224 211.697 C 202.224 212.857,202.296 213.332,202.384 212.752 C 202.472 212.172,202.472 211.222,202.384 210.642 C 202.296 210.062,202.224 210.537,202.224 211.697 M148.892 212.176 C 149.202 212.651,149.752 213.616,150.115 214.321 C 150.478 215.026,150.859 215.520,150.961 215.418 C 151.166 215.213,148.858 211.314,148.533 211.314 C 148.421 211.314,148.583 211.702,148.892 212.176 M88.830 212.848 C 88.964 213.586,89.225 214.535,89.409 214.957 C 89.640 215.483,89.669 215.303,89.502 214.382 C 89.368 213.643,89.107 212.694,88.922 212.272 C 88.692 211.746,88.663 211.926,88.830 212.848 M143.073 214.573 C 143.073 214.784,143.327 215.292,143.636 215.701 C 143.946 216.111,144.199 216.273,144.199 216.062 C 144.199 215.851,143.946 215.344,143.636 214.934 C 143.327 214.525,143.073 214.362,143.073 214.573 M196.107 217.833 C 196.107 219.626,196.173 220.360,196.254 219.463 C 196.335 218.567,196.335 217.100,196.254 216.203 C 196.173 215.307,196.107 216.040,196.107 217.833 M202.557 216.203 C 202.487 217.980,202.991 218.333,203.651 216.970 C 204.042 216.164,204.031 216.154,203.498 216.817 C 202.966 217.479,202.917 217.427,202.774 216.050 L 202.622 214.573 202.557 216.203 M151.678 217.066 C 152.005 217.699,152.359 218.217,152.465 218.217 C 152.570 218.217,152.389 217.699,152.061 217.066 C 151.734 216.433,151.380 215.916,151.275 215.916 C 151.169 215.916,151.351 216.433,151.678 217.066 M144.850 218.020 C 145.200 218.756,145.556 219.289,145.639 219.206 C 145.814 219.031,144.650 216.683,144.388 216.683 C 144.291 216.683,144.499 217.285,144.850 218.020 M90.185 217.641 C 90.184 217.852,90.416 218.629,90.700 219.367 C 90.984 220.105,91.222 220.451,91.229 220.134 C 91.235 219.818,91.004 219.041,90.714 218.408 C 90.424 217.776,90.186 217.430,90.185 217.641 M153.212 219.751 C 153.539 220.384,153.893 220.901,153.999 220.901 C 154.104 220.901,153.923 220.384,153.595 219.751 C 153.268 219.118,152.914 218.600,152.809 218.600 C 152.703 218.600,152.885 219.118,153.212 219.751 M146.384 221.088 C 146.734 221.824,147.090 222.358,147.173 222.274 C 147.348 222.099,146.184 219.751,145.922 219.751 C 145.825 219.751,146.033 220.353,146.384 221.088 M91.518 221.668 C 91.648 222.196,91.989 223.145,92.277 223.778 C 92.698 224.702,92.755 224.739,92.566 223.969 C 92.437 223.442,92.095 222.493,91.807 221.860 C 91.386 220.936,91.329 220.898,91.518 221.668 M155.321 223.586 C 155.960 224.851,156.569 225.887,156.675 225.887 C 156.780 225.887,156.344 224.851,155.705 223.586 C 155.066 222.320,154.457 221.285,154.351 221.285 C 154.246 221.285,154.682 222.320,155.321 223.586 M93.392 226.538 C 93.966 227.914,94.343 228.535,94.343 228.107 C 94.343 227.693,93.178 225.120,92.991 225.120 C 92.885 225.120,93.066 225.758,93.392 226.538 M194.877 228.434 C 194.636 229.635,194.510 230.688,194.597 230.775 C 194.684 230.862,194.958 229.957,195.206 228.763 C 195.454 227.570,195.580 226.516,195.486 226.423 C 195.392 226.329,195.118 227.234,194.877 228.434 M158.581 229.722 C 159.325 231.198,160.019 232.407,160.125 232.407 C 160.230 232.407,159.708 231.198,158.965 229.722 C 158.221 228.245,157.526 227.037,157.421 227.037 C 157.315 227.037,157.837 228.245,158.581 229.722 M289.333 228.284 L 288.207 229.530 289.453 228.404 C 290.139 227.784,290.700 227.223,290.700 227.157 C 290.700 226.861,290.383 227.122,289.333 228.284 M149.979 228.380 C 149.979 228.591,150.226 229.195,150.527 229.722 C 150.829 230.249,151.075 230.508,151.075 230.297 C 151.075 230.086,150.829 229.482,150.527 228.955 C 150.226 228.428,149.979 228.169,149.979 228.380 M151.513 231.831 C 151.513 232.042,151.760 232.646,152.061 233.174 C 152.363 233.701,152.609 233.960,152.609 233.749 C 152.609 233.538,152.363 232.934,152.061 232.407 C 151.760 231.879,151.513 231.620,151.513 231.831 M193.365 234.209 C 192.798 236.058,193.072 236.333,193.672 234.516 C 193.925 233.749,194.057 233.048,193.966 232.956 C 193.875 232.865,193.605 233.429,193.365 234.209 M282.626 234.995 L 281.304 236.433 282.742 235.112 C 284.081 233.882,284.357 233.557,284.064 233.557 C 284.000 233.557,283.352 234.204,282.626 234.995 M97.030 234.027 C 97.029 234.180,97.372 234.871,97.793 235.561 C 98.214 236.252,98.558 236.644,98.558 236.433 C 98.557 236.222,98.214 235.532,97.795 234.899 C 97.376 234.267,97.032 233.874,97.030 234.027 M153.603 236.510 C 154.177 237.885,154.554 238.506,154.554 238.078 C 154.554 237.664,153.389 235.091,153.202 235.091 C 153.096 235.091,153.277 235.729,153.603 236.510 M100.442 239.789 C 101.502 241.318,103.163 243.432,104.133 244.487 L 105.898 246.405 103.960 243.993 C 102.894 242.666,101.323 240.552,100.469 239.295 C 99.615 238.037,98.827 237.009,98.716 237.009 C 98.606 237.009,99.383 238.260,100.442 239.789 M190.666 241.052 C 190.024 242.462,190.146 242.763,190.841 241.481 C 191.166 240.882,191.359 240.321,191.272 240.233 C 191.184 240.145,190.912 240.514,190.666 241.052 M164.595 241.490 C 165.273 243.082,165.766 243.516,165.265 242.081 C 165.028 241.400,164.676 240.745,164.485 240.627 C 164.293 240.508,164.343 240.897,164.595 241.490 M156.115 242.186 C 156.115 242.397,156.362 243.001,156.663 243.528 C 156.965 244.056,157.212 244.314,157.212 244.104 C 157.212 243.893,156.965 243.289,156.663 242.761 C 156.362 242.234,156.115 241.975,156.115 242.186 M189.262 243.912 C 188.935 244.545,188.753 245.062,188.859 245.062 C 188.964 245.062,189.318 244.545,189.645 243.912 C 189.972 243.279,190.154 242.761,190.048 242.761 C 189.943 242.761,189.589 243.279,189.262 243.912 M166.097 244.487 C 166.097 244.698,166.684 245.992,167.402 247.363 C 168.120 248.734,168.707 249.684,168.707 249.473 C 168.707 249.262,168.120 247.967,167.402 246.596 C 166.684 245.225,166.097 244.276,166.097 244.487 M157.458 245.446 C 157.596 245.973,157.862 246.569,158.049 246.769 C 158.596 247.355,158.428 246.514,157.784 245.446 L 157.207 244.487 157.458 245.446 M187.772 246.405 C 187.431 246.932,186.873 247.838,186.532 248.418 L 185.911 249.473 186.682 248.539 C 187.594 247.436,188.802 245.446,188.561 245.446 C 188.467 245.446,188.112 245.877,187.772 246.405 M158.992 249.281 C 159.130 249.808,159.396 250.404,159.583 250.604 C 160.130 251.190,159.962 250.349,159.318 249.281 L 158.741 248.322 158.992 249.281 M109.314 250.175 C 111.350 252.026,116.523 256.114,115.628 255.165 C 114.666 254.145,109.301 249.664,109.042 249.664 C 108.883 249.664,109.005 249.894,109.314 250.175 M181.208 254.442 C 178.888 256.815,176.385 259.227,175.647 259.802 C 174.909 260.378,174.702 260.651,175.187 260.410 C 176.732 259.642,186.706 249.707,185.549 250.088 C 185.482 250.110,183.528 252.070,181.208 254.442 M160.527 253.116 C 160.668 253.643,160.943 254.334,161.139 254.650 C 161.386 255.050,161.416 254.933,161.238 254.267 C 161.096 253.739,160.821 253.049,160.626 252.733 C 160.379 252.333,160.348 252.450,160.527 253.116 M202.089 253.361 C 201.877 253.918,201.775 254.444,201.862 254.531 C 201.949 254.618,202.204 254.163,202.429 253.519 C 202.927 252.088,202.626 251.948,202.089 253.361 M170.314 253.308 C 170.314 253.519,170.816 254.640,171.429 255.801 C 172.041 256.961,172.543 257.737,172.543 257.526 C 172.543 257.315,172.041 256.194,171.429 255.034 C 170.816 253.873,170.314 253.097,170.314 253.308 M116.203 255.602 C 116.203 255.814,120.277 258.579,121.572 259.246 C 122.100 259.517,122.443 259.642,122.335 259.524 C 121.967 259.118,116.203 255.432,116.203 255.602 M161.700 256.184 C 161.830 256.711,162.171 257.661,162.460 258.293 C 162.880 259.217,162.937 259.255,162.748 258.485 C 162.619 257.958,162.277 257.009,161.989 256.376 C 161.568 255.452,161.512 255.414,161.700 256.184 M237.009 258.485 C 236.238 258.732,236.200 258.794,236.817 258.803 C 237.239 258.810,237.929 258.666,238.351 258.485 C 239.328 258.065,238.320 258.065,237.009 258.485 M122.723 259.825 C 122.723 260.082,127.372 262.401,127.543 262.230 C 127.621 262.152,126.568 261.539,125.203 260.866 C 123.839 260.193,122.723 259.725,122.723 259.825 M163.052 259.827 C 163.051 260.038,163.282 260.815,163.567 261.553 C 163.851 262.291,164.089 262.637,164.095 262.320 C 164.102 262.004,163.870 261.227,163.580 260.594 C 163.291 259.962,163.053 259.616,163.052 259.827 M212.176 261.071 C 213.600 261.144,215.930 261.144,217.354 261.071 C 218.778 260.997,217.613 260.936,214.765 260.936 C 211.918 260.936,210.753 260.997,212.176 261.071 M129.626 263.279 C 130.153 263.580,130.757 263.827,130.968 263.827 C 131.179 263.827,130.920 263.580,130.393 263.279 C 129.866 262.978,129.262 262.731,129.051 262.731 C 128.840 262.731,129.099 262.978,129.626 263.279 M132.502 264.443 C 133.135 264.733,133.912 264.965,134.228 264.958 C 134.545 264.952,134.199 264.714,133.461 264.430 C 131.710 263.755,131.021 263.765,132.502 264.443 M164.562 264.085 C 164.542 264.317,164.718 265.059,164.953 265.734 C 165.470 267.217,165.345 267.366,163.272 267.743 L 161.649 268.037 163.490 267.908 C 165.858 267.742,165.924 267.648,165.204 265.482 C 164.871 264.481,164.582 263.852,164.562 264.085 M136.529 265.723 C 136.846 265.912,137.709 266.174,138.447 266.305 C 139.352 266.465,139.539 266.436,139.022 266.214 C 137.836 265.707,135.848 265.314,136.529 265.723 M142.732 267.279 C 143.295 267.459,144.849 267.704,146.183 267.822 C 148.024 267.985,148.240 267.961,147.076 267.719 C 144.607 267.206,141.533 266.895,142.732 267.279 M152.332 268.357 C 153.747 268.430,156.163 268.431,157.701 268.358 C 159.240 268.285,158.082 268.225,155.129 268.224 C 152.176 268.224,150.918 268.283,152.332 268.357 M204.890 300.552 C 205.259 300.648,205.863 300.648,206.232 300.552 C 206.601 300.456,206.299 300.377,205.561 300.377 C 204.823 300.377,204.521 300.456,204.890 300.552 M338.351 300.552 C 338.720 300.648,339.324 300.648,339.693 300.552 C 340.062 300.456,339.760 300.377,339.022 300.377 C 338.284 300.377,337.982 300.456,338.351 300.552 M179.386 301.712 L 181.783 301.858 181.783 306.826 C 181.783 309.558,181.913 311.793,182.071 311.794 C 182.229 311.794,182.272 309.507,182.167 306.712 L 181.975 301.630 179.482 301.598 L 176.989 301.565 179.386 301.712 M326.638 301.678 C 326.489 301.827,326.366 304.164,326.366 306.871 C 326.366 311.763,326.245 312.232,325.215 311.314 C 324.758 310.906,324.753 310.934,325.185 311.505 C 326.463 313.194,326.750 312.368,326.750 306.999 L 326.750 301.822 329.047 301.822 L 331.343 301.822 331.450 317.546 L 331.557 333.270 331.550 317.450 L 331.544 301.630 329.227 301.518 C 327.953 301.456,326.788 301.528,326.638 301.678 M176.972 317.737 C 176.973 326.174,177.023 329.571,177.085 325.286 C 177.147 321.001,177.147 314.098,177.085 309.946 C 177.023 305.794,176.972 309.300,176.972 317.737 M342.090 303.381 C 342.090 303.817,341.908 304.550,341.685 305.011 C 341.295 305.820,341.301 305.823,341.877 305.104 C 342.428 304.417,342.722 302.589,342.282 302.589 C 342.176 302.589,342.090 302.945,342.090 303.381 M94.045 309.971 C 93.961 316.287,94.111 317.061,95.159 315.724 C 95.635 315.118,95.621 315.103,95.024 315.571 C 94.405 316.056,94.355 315.692,94.247 309.818 L 94.131 303.547 94.045 309.971 M106.400 309.588 L 105.273 310.834 106.520 309.708 C 107.681 308.658,107.942 308.341,107.646 308.341 C 107.580 308.341,107.019 308.902,106.400 309.588 M163.471 309.373 C 163.840 309.469,164.444 309.469,164.813 309.373 C 165.182 309.276,164.880 309.197,164.142 309.197 C 163.404 309.197,163.102 309.276,163.471 309.373 M188.399 309.373 C 188.768 309.469,189.372 309.469,189.741 309.373 C 190.110 309.276,189.808 309.197,189.070 309.197 C 188.332 309.197,188.030 309.276,188.399 309.373 M224.065 309.373 C 224.434 309.469,225.038 309.469,225.407 309.373 C 225.777 309.276,225.475 309.197,224.736 309.197 C 223.998 309.197,223.696 309.276,224.065 309.373 M264.717 309.373 C 265.086 309.469,265.690 309.469,266.059 309.373 C 266.429 309.276,266.127 309.197,265.388 309.197 C 264.650 309.197,264.348 309.276,264.717 309.373 M318.025 309.373 C 318.394 309.469,318.998 309.469,319.367 309.373 C 319.736 309.276,319.434 309.197,318.696 309.197 C 317.958 309.197,317.656 309.276,318.025 309.373 M129.322 317.929 C 129.285 322.675,129.381 326.758,129.536 327.003 C 129.691 327.247,129.772 324.400,129.717 320.675 C 129.554 309.763,129.395 308.657,129.322 317.929 M203.132 309.748 C 202.777 310.102,202.809 332.799,203.164 333.018 C 203.322 333.116,203.452 327.863,203.452 321.344 C 203.452 314.825,203.437 309.492,203.420 309.492 C 203.402 309.492,203.273 309.607,203.132 309.748 M212.848 321.381 C 212.848 327.919,212.977 333.269,213.135 333.269 C 213.293 333.269,213.423 327.919,213.423 321.381 C 213.423 314.842,213.293 309.492,213.135 309.492 C 212.977 309.492,212.848 314.842,212.848 321.381 M217.743 310.468 C 217.958 311.593,218.436 311.985,218.825 311.356 C 218.998 311.076,218.936 311.010,218.659 311.181 C 218.381 311.353,218.217 311.170,218.217 310.688 C 218.217 310.266,218.069 309.829,217.889 309.718 C 217.708 309.606,217.642 309.944,217.743 310.468 M277.852 321.381 C 277.852 327.879,277.982 333.116,278.140 333.018 C 278.298 332.921,278.428 327.684,278.428 321.381 C 278.428 315.078,278.298 309.841,278.140 309.743 C 277.982 309.645,277.852 314.882,277.852 321.381 M336.419 321.477 C 336.501 333.406,336.628 332.052,336.815 317.258 C 336.869 312.986,336.783 309.491,336.625 309.491 C 336.467 309.492,336.374 314.885,336.419 321.477 M341.229 317.258 C 341.416 332.052,341.543 333.406,341.625 321.477 C 341.670 314.885,341.577 309.492,341.419 309.491 C 341.261 309.491,341.175 312.986,341.229 317.258 M150.719 321.650 C 150.613 328.020,150.659 333.100,150.821 332.938 C 150.982 332.776,151.068 327.564,151.012 321.356 L 150.910 310.067 150.719 321.650 M230.489 310.762 C 230.489 310.828,231.050 311.389,231.735 312.009 L 232.982 313.135 231.855 311.889 C 230.805 310.727,230.489 310.466,230.489 310.762 M233.920 312.464 L 232.598 313.902 234.036 312.581 C 235.375 311.350,235.651 311.026,235.358 311.026 C 235.294 311.026,234.647 311.673,233.920 312.464 M257.314 312.464 L 255.992 313.902 257.430 312.581 C 258.769 311.350,259.045 311.026,258.752 311.026 C 258.688 311.026,258.041 311.673,257.314 312.464 M96.812 313.423 L 95.686 314.669 96.932 313.543 C 98.094 312.493,98.355 312.176,98.058 312.176 C 97.992 312.176,97.431 312.737,96.812 313.423 M267.689 313.984 C 268.006 314.102,268.610 314.356,269.032 314.550 C 269.786 314.898,269.787 314.894,269.054 314.307 C 268.645 313.979,268.041 313.724,267.712 313.741 C 267.196 313.767,267.192 313.800,267.689 313.984 M101.414 315.340 L 100.288 316.587 101.534 315.460 C 102.696 314.410,102.957 314.094,102.660 314.094 C 102.594 314.094,102.034 314.655,101.414 315.340 M244.328 315.482 C 244.837 316.139,245.331 316.609,245.425 316.525 C 245.520 316.441,245.103 315.902,244.500 315.329 L 243.402 314.286 244.328 315.482 M154.651 316.203 C 154.655 317.047,154.734 317.347,154.825 316.870 C 154.917 316.393,154.914 315.703,154.818 315.336 C 154.722 314.969,154.647 315.360,154.651 316.203 M169.422 317.056 C 170.111 317.142,171.147 317.140,171.723 317.053 C 172.299 316.965,171.735 316.895,170.470 316.897 C 169.204 316.900,168.733 316.971,169.422 317.056 M198.273 325.101 C 198.168 329.574,198.216 333.099,198.378 332.936 C 198.541 332.773,198.627 329.114,198.569 324.805 L 198.465 316.970 198.273 325.101 M250.814 325.101 C 250.709 329.574,250.756 333.099,250.919 332.936 C 251.082 332.773,251.168 329.114,251.110 324.805 L 251.005 316.970 250.814 325.101 M299.213 325.289 C 299.171 329.442,299.267 332.921,299.425 333.019 C 299.583 333.118,299.667 330.927,299.613 328.152 C 299.426 318.701,299.290 317.725,299.213 325.289 M229.499 325.599 C 229.499 329.712,229.555 331.395,229.624 329.338 C 229.693 327.282,229.693 323.917,229.624 321.860 C 229.555 319.803,229.499 321.486,229.499 325.599 M234.244 325.791 C 234.183 329.905,234.262 333.270,234.420 333.270 C 234.578 333.270,234.708 329.904,234.708 325.791 C 234.708 321.678,234.628 318.313,234.532 318.313 C 234.435 318.313,234.305 321.678,234.244 325.791 M181.943 325.791 C 181.944 329.799,182.000 331.386,182.069 329.319 C 182.139 327.251,182.138 323.972,182.069 322.032 C 181.999 320.092,181.943 321.783,181.943 325.791 M254.012 321.381 C 254.012 322.963,254.080 323.610,254.162 322.819 C 254.245 322.028,254.245 320.733,254.162 319.942 C 254.080 319.151,254.012 319.799,254.012 321.381 M156.555 320.427 C 157.339 321.247,158.042 321.840,158.118 321.745 C 158.194 321.650,157.553 320.979,156.693 320.254 L 155.129 318.936 156.555 320.427 M193.364 325.864 C 193.322 329.701,193.418 332.921,193.576 333.019 C 193.734 333.118,193.819 331.100,193.764 328.536 C 193.576 319.793,193.439 318.879,193.364 325.864 M217.754 326.175 C 217.692 330.077,217.771 333.270,217.929 333.270 C 218.087 333.270,218.217 330.077,218.217 326.174 C 218.217 322.272,218.138 319.080,218.041 319.080 C 217.945 319.080,217.815 322.272,217.754 326.175 M100.096 319.967 C 100.096 320.033,100.657 320.593,101.342 321.213 L 102.589 322.339 101.462 321.093 C 100.412 319.931,100.096 319.670,100.096 319.967 M312.664 321.381 C 312.664 322.330,312.739 322.718,312.831 322.244 C 312.922 321.769,312.922 320.992,312.831 320.518 C 312.739 320.043,312.664 320.431,312.664 321.381 M326.471 321.381 C 326.471 322.330,326.545 322.718,326.637 322.244 C 326.728 321.769,326.728 320.992,326.637 320.518 C 326.545 320.043,326.471 320.431,326.471 321.381 M93.882 326.906 C 93.819 330.366,93.897 333.117,94.056 333.019 C 94.214 332.921,94.343 330.149,94.343 326.859 L 94.343 320.878 95.206 321.609 L 96.069 322.339 95.338 321.477 C 94.104 320.019,93.999 320.410,93.882 326.906 M167.785 326.558 C 167.785 327.256,167.915 327.747,168.073 327.649 C 168.231 327.552,168.360 327.060,168.360 326.558 C 168.360 326.056,168.231 325.565,168.073 325.467 C 167.915 325.369,167.785 325.860,167.785 326.558 M156.845 325.876 C 158.211 325.957,159.475 326.230,159.655 326.483 C 159.885 326.805,159.935 326.770,159.826 326.366 C 159.708 325.929,159.032 325.783,157.016 325.759 L 154.362 325.727 156.845 325.876 M260.403 326.103 C 260.403 326.169,260.964 326.730,261.649 327.349 L 262.895 328.476 261.769 327.229 C 260.719 326.067,260.403 325.806,260.403 326.103 M270.542 327.229 L 269.415 328.476 270.662 327.349 C 271.347 326.730,271.908 326.169,271.908 326.103 C 271.908 325.806,271.592 326.067,270.542 327.229 M105.849 326.486 C 105.849 326.552,106.409 327.113,107.095 327.733 L 108.341 328.859 107.215 327.613 C 106.165 326.451,105.849 326.190,105.849 326.486 M308.725 327.410 C 308.725 327.633,309.080 328.223,309.515 328.721 L 310.304 329.626 309.631 328.476 C 308.744 326.961,308.725 326.939,308.725 327.410 M137.082 328.454 C 137.557 328.835,138.607 329.051,139.981 329.051 C 141.355 329.051,142.405 328.835,142.880 328.454 C 143.599 327.878,143.596 327.872,142.786 328.263 C 142.326 328.485,141.063 328.667,139.981 328.667 C 138.898 328.667,137.636 328.485,137.175 328.263 C 136.366 327.872,136.363 327.878,137.082 328.454 M267.689 328.667 C 266.900 328.920,266.866 328.980,267.498 329.007 C 267.919 329.025,268.523 328.872,268.840 328.667 C 269.512 328.233,269.045 328.233,267.689 328.667 M172.579 328.974 C 172.579 329.212,172.025 330.061,171.347 330.859 C 170.242 332.160,170.226 332.211,171.190 331.352 C 172.404 330.270,173.135 329.095,172.802 328.762 C 172.679 328.640,172.579 328.735,172.579 328.974 M257.335 330.393 C 258.050 331.131,258.722 331.735,258.827 331.735 C 258.933 331.735,258.434 331.131,257.718 330.393 C 257.003 329.655,256.331 329.051,256.225 329.051 C 256.120 329.051,256.619 329.655,257.335 330.393 M103.547 331.352 C 104.430 332.407,105.239 333.269,105.345 333.269 C 105.450 333.269,104.814 332.407,103.931 331.352 C 103.048 330.297,102.239 329.434,102.134 329.434 C 102.028 329.434,102.664 330.297,103.547 331.352 M108.533 329.554 C 108.533 329.620,109.094 330.181,109.779 330.801 L 111.026 331.927 109.899 330.681 C 108.850 329.519,108.533 329.258,108.533 329.554 M325.371 331.064 L 324.640 331.927 325.503 331.197 L 326.366 330.466 326.366 331.653 C 326.366 332.306,326.499 332.923,326.661 333.023 C 326.823 333.123,326.891 332.529,326.812 331.703 C 326.648 329.976,326.389 329.862,325.371 331.064 M137.776 333.544 C 138.356 333.632,139.305 333.632,139.885 333.544 C 140.465 333.456,139.990 333.384,138.830 333.384 C 137.670 333.384,137.196 333.456,137.776 333.544 M162.895 333.547 C 163.581 333.632,164.703 333.632,165.388 333.547 C 166.074 333.462,165.513 333.392,164.142 333.392 C 162.771 333.392,162.210 333.462,162.895 333.547 M263.758 333.547 C 264.444 333.632,265.566 333.632,266.251 333.547 C 266.937 333.462,266.376 333.392,265.005 333.392 C 263.634 333.392,263.073 333.462,263.758 333.547 M317.457 333.547 C 318.146 333.633,319.181 333.631,319.758 333.543 C 320.334 333.456,319.770 333.386,318.504 333.388 C 317.239 333.390,316.767 333.462,317.457 333.547 " stroke="none" fill="#a6cbb1" fill-rule="evenodd"></path></g></svg>